{"asset":{"version":"2.0","generator":"babylon.js glTF exporter for Autodesk MAYA 2023.3 v20250113.1"},"scene":0,"scenes":[{"nodes":[0,1,2,3]}],"nodes":[{"mesh":0,"name":"cap"},{"mesh":1,"translation":[-0.0012226596,0.1897586,0.172305882],"rotation":[0.6141989,0.0,0.0,0.789151251],"scale":[10.7308741,10.7308741,5.771016],"name":"A3_marker"},{"mesh":2,"translation":[0.130986959,0.164748222,0.0414713658],"rotation":[0.499143839,0.164879829,-0.6876152,0.500854731],"scale":[16.2995033,10.7308741,11.6162844],"name":"left_marker"},{"mesh":3,"translation":[-0.12955904,0.1661172,0.0424798578],"rotation":[0.5543318,-0.137875065,0.6935348,0.438994616],"scale":[16.2995033,10.7308741,11.6162844],"name":"right_marker"}],"meshes":[{"primitives":[{"attributes":{"POSITION":1,"NORMAL":2,"TEXCOORD_0":3},"indices":0,"material":0},{"attributes":{"POSITION":5,"NORMAL":6,"TEXCOORD_0":7},"indices":4,"material":1}],"name":"cap"},{"primitives":[{"attributes":{"POSITION":9,"NORMAL":10,"TEXCOORD_0":11},"indices":8,"material":2}],"name":"A3_marker"},{"primitives":[{"attributes":{"POSITION":13,"NORMAL":14,"TEXCOORD_0":15},"indices":12,"material":2}],"name":"left_marker"},{"primitives":[{"attributes":{"POSITION":17,"NORMAL":18,"TEXCOORD_0":19},"indices":16,"material":2}],"name":"right_marker"}],"accessors":[{"bufferView":0,"componentType":5123,"count":6672,"type":"SCALAR","name":"accessorIndices"},{"bufferView":1,"componentType":5126,"count":1192,"max":[0.14075388,0.281032532,0.181715921],"min":[-0.140141517,0.00413807854,-0.138212234],"type":"VEC3","name":"accessorPositions"},{"bufferView":1,"byteOffset":14304,"componentType":5126,"count":1192,"type":"VEC3","name":"accessorNormals"},{"bufferView":2,"componentType":5126,"count":1192,"type":"VEC2","name":"accessorUVs"},{"bufferView":0,"byteOffset":13344,"componentType":5123,"count":7584,"type":"SCALAR","name":"accessorIndices"},{"bufferView":1,"byteOffset":28608,"componentType":5126,"count":1303,"max":[0.13780731,0.278107435,0.181715921],"min":[-0.137193471,0.0008425617,-0.1352961],"type":"VEC3","name":"accessorPositions"},{"bufferView":1,"byteOffset":44244,"componentType":5126,"count":1303,"type":"VEC3","name":"accessorNormals"},{"bufferView":2,"byteOffset":9536,"componentType":5126,"count":1303,"type":"VEC2","name":"accessorUVs"},{"bufferView":0,"byteOffset":28512,"componentType":5123,"count":6,"type":"SCALAR","name":"accessorIndices"},{"bufferView":1,"byteOffset":59880,"componentType":5126,"count":4,"max":[0.005,0.0,0.005],"min":[-0.005,0.0,-0.005],"type":"VEC3","name":"accessorPositions"},{"bufferView":1,"byteOffset":59928,"componentType":5126,"count":4,"type":"VEC3","name":"accessorNormals"},{"bufferView":2,"byteOffset":19960,"componentType":5126,"count":4,"type":"VEC2","name":"accessorUVs"},{"bufferView":0,"byteOffset":28524,"componentType":5123,"count":6,"type":"SCALAR","name":"accessorIndices"},{"bufferView":1,"byteOffset":59976,"componentType":5126,"count":4,"max":[0.005,0.0,0.005],"min":[-0.005,0.0,-0.005],"type":"VEC3","name":"accessorPositions"},{"bufferView":1,"byteOffset":60024,"componentType":5126,"count":4,"type":"VEC3","name":"accessorNormals"},{"bufferView":2,"byteOffset":19992,"componentType":5126,"count":4,"type":"VEC2","name":"accessorUVs"},{"bufferView":0,"byteOffset":28536,"componentType":5123,"count":6,"type":"SCALAR","name":"accessorIndices"},{"bufferView":1,"byteOffset":60072,"componentType":5126,"count":4,"max":[0.005,0.0,0.005],"min":[-0.005,0.0,-0.005],"type":"VEC3","name":"accessorPositions"},{"bufferView":1,"byteOffset":60120,"componentType":5126,"count":4,"type":"VEC3","name":"accessorNormals"},{"bufferView":2,"byteOffset":20024,"componentType":5126,"count":4,"type":"VEC2","name":"accessorUVs"}],"bufferViews":[{"buffer":0,"byteLength":28548,"name":"bufferViewScalar"},{"buffer":0,"byteOffset":28548,"byteLength":60168,"byteStride":12,"name":"bufferViewFloatVec3"},{"buffer":0,"byteOffset":88716,"byteLength":20056,"byteStride":8,"name":"bufferViewFloatVec2"}],"buffers":[{"uri":"cap.bin","byteLength":108772}],"materials":[{"pbrMetallicRoughness":{"baseColorFactor":[0.0396800078,0.0396800078,0.31,1.0],"metallicFactor":0.0,"roughnessFactor":0.450053632},"name":"color"},{"pbrMetallicRoughness":{"baseColorFactor":[0.0392,0.0392,0.3098,1.0],"metallicFactor":0.0,"roughnessFactor":0.450053632},"name":"innerColor"},{"pbrMetallicRoughness":{"baseColorFactor":[0.5,0.5,0.5,1.0],"metallicFactor":0.0,"roughnessFactor":0.450053632},"name":"lambert1"}]}