{"asset":{"version":"2.0","generator":"babylon.js glTF exporter for Autodesk MAYA 2023.3 v20250113.1"},"scene":0,"scenes":[{"nodes":[0,1]}],"nodes":[{"mesh":0,"name":"cap"},{"mesh":1,"translation":[-0.0012226596,0.1897586,0.172305882],"rotation":[0.6139097,0.0188846178,0.0202611033,0.7888902],"scale":[10.7308741,10.7308741,5.771016],"name":"A3_marker"}],"meshes":[{"primitives":[{"attributes":{"POSITION":1,"NORMAL":2,"TEXCOORD_0":3},"indices":0,"material":0}],"name":"cap"},{"primitives":[{"attributes":{"POSITION":5,"NORMAL":6,"TEXCOORD_0":7},"indices":4,"material":1}],"name":"A3_marker"}],"accessors":[{"bufferView":0,"componentType":5123,"count":14256,"type":"SCALAR","name":"accessorIndices"},{"bufferView":1,"componentType":5126,"count":2495,"max":[0.14075388,0.281032532,0.181715921],"min":[-0.140141517,0.0008425617,-0.138212234],"type":"VEC3","name":"accessorPositions"},{"bufferView":1,"byteOffset":29940,"componentType":5126,"count":2495,"type":"VEC3","name":"accessorNormals"},{"bufferView":2,"componentType":5126,"count":2495,"type":"VEC2","name":"accessorUVs"},{"bufferView":0,"byteOffset":28512,"componentType":5123,"count":6,"type":"SCALAR","name":"accessorIndices"},{"bufferView":1,"byteOffset":59880,"componentType":5126,"count":4,"max":[0.005,0.0,0.005],"min":[-0.005,0.0,-0.005],"type":"VEC3","name":"accessorPositions"},{"bufferView":1,"byteOffset":59928,"componentType":5126,"count":4,"type":"VEC3","name":"accessorNormals"},{"bufferView":2,"byteOffset":19960,"componentType":5126,"count":4,"type":"VEC2","name":"accessorUVs"}],"bufferViews":[{"buffer":0,"byteLength":28524,"name":"bufferViewScalar"},{"buffer":0,"byteOffset":28524,"byteLength":59976,"byteStride":12,"name":"bufferViewFloatVec3"},{"buffer":0,"byteOffset":88500,"byteLength":19992,"byteStride":8,"name":"bufferViewFloatVec2"}],"buffers":[{"uri":"cap.bin","byteLength":108492}],"materials":[{"pbrMetallicRoughness":{"baseColorFactor":[0.0396800078,0.0396800078,0.31,1.0],"metallicFactor":0.0,"roughnessFactor":0.450053632},"name":"color"},{"pbrMetallicRoughness":{"baseColorFactor":[0.5,0.5,0.5,1.0],"metallicFactor":0.0,"roughnessFactor":0.450053632},"name":"lambert1"}]}