<?xml version="1.0" encoding="UTF-8"?>
<!DOCTYPE svg PUBLIC "-//W3C//DTD SVG 1.1//EN" "http://www.w3.org/Graphics/SVG/1.1/DTD/svg11.dtd">
<!-- Creator: CorelDRAW -->
<svg xmlns="http://www.w3.org/2000/svg" xml:space="preserve" width="6.82666in" height="6.82666in" style="shape-rendering:geometricPrecision; text-rendering:geometricPrecision; image-rendering:optimizeQuality; fill-rule:evenodd; clip-rule:evenodd"
viewBox="0 0 6.82666 6.82666"
 xmlns:xlink="http://www.w3.org/1999/xlink">
 <defs>
  <style type="text/css">
   <![CDATA[
    .fil0 {fill:none}
    .fil2 {fill:#66BB6A}
    .fil1 {fill:#212121;fill-rule:nonzero}
   ]]>
  </style>
 </defs>
 <g id="Layer_x0020_1">
  <metadata id="CorelCorpID_0Corel-Layer"/>
  <g id="_370256688">
   <rect id="_370257000" class="fil0" width="6.82666" height="6.82666"/>
   <rect id="_370256400" class="fil0" x="0.853331" y="0.853331" width="5.12" height="5.12"/>
  </g>
  <path class="fil1" d="M3.41328 1.06667c-0.652126,0 -1.23883,0.260634 -1.66241,0.684213 -0.423579,0.423579 -0.684213,1.01028 -0.684213,1.66241 0,0.652169 0.26063,1.23889 0.684205,1.66248 0.423579,0.423598 1.01029,0.684236 1.66241,0.684236 0.0797953,0 0.155087,-0.0354055 0.210811,-0.0911299 0.0557402,-0.0557402 0.0911417,-0.131051 0.0911417,-0.210827 0,-0.0420276 -0.00464961,-0.077437 -0.0165079,-0.108398 -0.0116299,-0.0303661 -0.0311811,-0.0593307 -0.0613031,-0.0895945l-0.013748 -0.0166654 -0.00277953 -0.00424016c-0.0609567,-0.0929449 -0.122339,-0.186551 -0.122339,-0.325354 0,-0.138366 0.0597756,-0.267803 0.153846,-0.362276 0.0940709,-0.0944685 0.222976,-0.154657 0.36135,-0.154657l0.489768 0c0.35276,0 0.66698,-0.137843 0.892807,-0.363665 0.225823,-0.225823 0.363665,-0.540047 0.363665,-0.892803 0,-0.569433 -0.260272,-1.08765 -0.68302,-1.46336 -0.423862,-0.376701 -1.01078,-0.610362 -1.66369,-0.610362zm-1.81324 0.533378c0.462272,-0.462272 1.10223,-0.746717 1.81324,-0.746717 0.706862,0 1.34388,0.254402 1.80536,0.664535 0.46711,0.41513 0.754689,0.989606 0.754689,1.62252 0,0.411638 -0.161535,0.779004 -0.426169,1.04364 -0.264638,0.264634 -0.631996,0.426169 -1.04364,0.426169l-0.489768 0c-0.0798071,0 -0.154972,0.0355433 -0.210516,0.0913189 -0.0558504,0.0560906 -0.0913425,0.132 -0.0913425,0.212276 0,0.0741417 0.0422402,0.139902 0.0849567,0.205063 0.0476339,0.0497323 0.0800118,0.100067 0.101039,0.154957 0.0220433,0.0575472 0.0306811,0.117205 0.0306811,0.184232 0,0.138657 -0.0596811,0.267689 -0.153646,0.361661 -0.0939449,0.0939449 -0.222957,0.153634 -0.361646,0.153634 -0.711016,0 -1.35097,-0.284445 -1.81325,-0.74674 -0.462268,-0.462283 -0.746709,-1.10226 -0.746709,-1.81331 0,-0.711008 0.284445,-1.35097 0.746717,-1.81324z"/>
  <path class="fil2" d="M1.70369 2.79394c0.0557402,-0.0557402 0.131051,-0.0911417 0.210827,-0.0911417 0.0796772,0 0.155004,0.0354331 0.210791,0.0912165 0.0557244,0.0557244 0.0911614,0.130984 0.0911614,0.210736 0,0.0797047 -0.0354409,0.154945 -0.0911732,0.210665 -0.0557756,0.0557638 -0.131102,0.0911929 -0.21078,0.0911929 -0.0797795,0 -0.155079,-0.0353937 -0.210815,-0.0911181 -0.0557323,-0.0557205 -0.0911417,-0.130992 -0.0911417,-0.21074 0,-0.0797953 0.0354055,-0.155087 0.0911299,-0.210811zm0.726118 0.210811c0,-0.138661 -0.0597323,-0.267638 -0.153665,-0.361571 -0.0940118,-0.0940079 -0.223091,-0.15372 -0.361626,-0.15372 -0.138657,0 -0.267689,0.0596811 -0.361661,0.153646 -0.0939449,0.0939449 -0.153634,0.222957 -0.153634,0.361646 0,0.13865 0.0596929,0.267642 0.153646,0.361575 0.0939685,0.0939488 0.223,0.153622 0.36165,0.153622 0.138531,0 0.267602,-0.0597047 0.361614,-0.153697 0.0939409,-0.0939173 0.153677,-0.222878 0.153677,-0.3615z"/>
  <path class="fil2" d="M2.521 1.70379c0.0557795,-0.0557835 0.131102,-0.0912283 0.210764,-0.0912283 0.0797638,0 0.155063,0.0354134 0.210803,0.0911535 0.0557402,0.0557402 0.0911535,0.131039 0.0911535,0.210803 0,0.0796654 -0.0354449,0.154984 -0.0912283,0.210764 -0.0557402,0.0557402 -0.131008,0.091189 -0.210728,0.091189 -0.0796181,0 -0.154909,-0.0354803 -0.210693,-0.0912638 -0.0557835,-0.0557835 -0.0912598,-0.131071 -0.0912598,-0.210689 0,-0.0797165 0.0354488,-0.154988 0.091189,-0.210728zm0.726059 0.210728c0,-0.13865 -0.0596969,-0.267677 -0.153657,-0.361638 -0.0939606,-0.0939606 -0.222988,-0.153657 -0.361638,-0.153657 -0.138531,0 -0.267598,0.0597283 -0.361598,0.153732 -0.0939528,0.0939449 -0.153693,0.222937 -0.153693,0.361563 0,0.138504 0.0597717,0.267531 0.153764,0.361524 0.0939921,0.0939921 0.223024,0.153768 0.361528,0.153768 0.138626,0 0.267618,-0.0597402 0.361563,-0.153693 0.0940039,-0.094 0.153732,-0.223067 0.153732,-0.361598z"/>
  <path class="fil2" d="M4.61019 1.91452c0,-0.13865 -0.0596969,-0.267677 -0.153657,-0.361638 -0.0939606,-0.0939606 -0.222984,-0.153657 -0.361634,-0.153657 -0.138531,0 -0.267598,0.0597283 -0.361602,0.153732 -0.0939488,0.0939528 -0.153693,0.222941 -0.153693,0.361563 0,0.138504 0.0597756,0.267531 0.153768,0.361524 0.0939921,0.0939921 0.223024,0.153768 0.361528,0.153768 0.138622,0 0.267614,-0.059748 0.361559,-0.153693 0.0940039,-0.094 0.153732,-0.223067 0.153732,-0.361598zm-0.817248 0c0,-0.0797165 0.0354488,-0.154984 0.091189,-0.210728 0.0557835,-0.0557835 0.131106,-0.0912283 0.210768,-0.0912283 0.0797638,0 0.155059,0.0354134 0.210799,0.0911535 0.0557402,0.0557402 0.0911535,0.131039 0.0911535,0.210803 0,0.0796654 -0.0354449,0.154984 -0.0912283,0.210764 -0.0557402,0.0557402 -0.131012,0.091189 -0.210724,0.091189 -0.0796181,0 -0.154909,-0.0354803 -0.210693,-0.0912638 -0.0557835,-0.0557835 -0.0912638,-0.131071 -0.0912638,-0.210689z"/>
  <path class="fil2" d="M5.27526 2.64354c-0.0942008,-0.0942087 -0.22348,-0.154071 -0.361469,-0.154071 -0.13837,0 -0.267811,0.0597756 -0.362287,0.15387 -0.0944646,0.0940827 -0.154646,0.223008 -0.154646,0.361421 0,0.138374 0.060189,0.26728 0.154657,0.36135 0.0944724,0.0940709 0.223909,0.153846 0.362276,0.153846 0.137701,0 0.266831,-0.0598622 0.361043,-0.154047 0.0941299,-0.0941063 0.154252,-0.222929 0.154252,-0.36115 0,-0.138543 -0.0599567,-0.267354 -0.153827,-0.36122zm-0.573756 0.150634c0.0560945,-0.0558701 0.132012,-0.0913661 0.212287,-0.0913661 0.0792165,0 0.15465,0.0355787 0.210634,0.0915669 0.0557283,0.0557244 0.0913228,0.13085 0.0913228,0.210386 0,0.0797677 -0.035437,0.154854 -0.0909134,0.210315 -0.0559882,0.0559724 -0.131551,0.0915433 -0.211043,0.0915433 -0.0802756,0 -0.156185,-0.0354921 -0.212276,-0.0913425 -0.0557756,-0.0555433 -0.0913189,-0.130709 -0.0913189,-0.210516 0,-0.0798465 0.0355315,-0.155039 0.0913071,-0.210587z"/>
 </g>
</svg>
